<?xml version="1.0" standalone="no"?>
<!DOCTYPE svg PUBLIC "-//W3C//DTD SVG 20010904//EN"
 "http://www.w3.org/TR/2001/REC-SVG-20010904/DTD/svg10.dtd">
<svg version="1.0" xmlns="http://www.w3.org/2000/svg"
 width="1024.000000pt" height="1024.000000pt" viewBox="0 0 1024.000000 1024.000000"
 preserveAspectRatio="xMidYMid meet">

<g transform="translate(0.000000,1024.000000) scale(0.100000,-0.100000)"
fill="#000000" stroke="none">
<path d="M0 5120 l0 -5120 5120 0 5120 0 0 5120 0 5120 -5120 0 -5120 0 0
-5120z m5243 4436 c695 -423 1398 -733 2092 -921 519 -141 958 -206 1488 -222
125 -3 227 -8 227 -11 0 -3 -8 -14 -17 -25 -10 -11 -12 -17 -5 -13 11 7 13
-24 10 -170 -2 -99 -7 -185 -12 -193 -18 -28 -27 19 -33 174 -3 85 -10 152
-14 149 -5 -3 -9 -311 -9 -685 l0 -681 -26 -34 c-15 -18 -30 -31 -35 -28 -19
12 -43 -31 -55 -99 -6 -40 -15 -162 -19 -272 -29 -892 -148 -1642 -367 -2315
-105 -323 -286 -724 -449 -996 -45 -74 -78 -139 -73 -144 5 -4 45 -21 89 -38
102 -39 300 -127 330 -146 26 -17 41 -58 19 -49 -18 7 -18 -5 1 -23 14 -15 13
-26 -10 -79 -7 -16 -18 -64 -24 -105 -8 -49 -17 -79 -28 -88 -14 -10 -15 -16
-6 -31 9 -15 8 -23 -4 -40 -8 -12 -12 -29 -9 -37 3 -9 3 -21 -1 -27 -5 -7 -8
-23 -9 -37 0 -14 -4 -32 -9 -40 -5 -8 -8 -29 -7 -48 2 -21 -1 -31 -8 -27 -5 3
-10 -1 -10 -10 0 -10 5 -13 13 -9 7 5 7 1 -2 -10 -8 -9 -16 -40 -17 -67 -1
-27 -9 -60 -18 -74 -9 -14 -12 -26 -6 -30 5 -3 7 -12 3 -20 -3 -8 -1 -15 5
-15 13 0 24 44 15 66 -5 13 -3 16 9 11 20 -7 33 20 17 39 -8 10 -5 19 15 37
18 17 26 34 26 59 0 20 7 41 15 48 8 7 15 21 15 31 0 10 5 21 10 24 6 3 10 16
10 29 0 12 7 31 15 42 8 10 15 33 15 51 0 17 7 39 16 47 8 9 15 26 14 39 -4
38 0 47 16 47 14 0 15 7 10 41 -5 34 -4 42 11 45 13 4 19 16 19 43 2 58 30 90
79 91 52 0 67 14 54 49 -16 40 -57 79 -146 137 -86 56 -120 94 -85 94 11 0 88
-18 173 -39 231 -59 343 -75 468 -68 58 4 132 14 165 22 32 9 60 14 63 11 12
-11 -186 -318 -326 -507 -39 -51 -71 -99 -71 -105 0 -15 130 -238 236 -404
l92 -145 -66 -12 c-111 -20 -355 -27 -467 -14 l-101 13 3 61 c3 63 30 250 40
277 14 37 38 243 38 327 0 28 2 50 5 48 3 -2 5 22 4 53 -1 38 -5 56 -13 54 -7
-1 -11 3 -10 10 4 29 -1 52 -10 42 -9 -9 -109 -354 -162 -557 -16 -62 -42
-157 -59 -212 -16 -55 -50 -179 -74 -275 -25 -96 -50 -191 -56 -210 -5 -19
-10 -52 -10 -73 0 -50 -31 -108 -70 -131 -42 -24 -135 -32 -201 -16 -30 7
-128 39 -218 72 -91 33 -212 71 -270 85 -144 35 -140 33 -111 45 35 14 193 10
276 -6 38 -7 103 -25 144 -40 41 -15 98 -34 125 -42 28 -9 57 -18 65 -21 32
-12 80 -13 80 -2 0 7 10 9 24 7 17 -4 23 -1 19 9 -6 16 23 18 33 2 4 -8 9 -7
15 2 24 37 -1 77 -93 152 -165 134 -614 265 -1313 381 -731 123 -1742 159
-2500 90 -232 -21 -515 -52 -622 -69 -51 -8 -137 -22 -190 -30 -346 -54 -841
-175 -1029 -251 -212 -85 -354 -186 -354 -250 0 -59 73 -99 163 -88 52 5 72
12 145 46 26 12 49 23 52 23 3 1 16 6 30 12 49 21 116 31 172 26 l57 -5 -97
-35 c-209 -74 -232 -82 -232 -73 0 5 -7 7 -15 4 -8 -4 -13 -10 -10 -14 8 -12
-92 -33 -160 -34 -45 -1 -70 5 -101 22 -51 30 -65 52 -74 121 -7 56 -63 320
-80 376 -5 17 -14 50 -20 74 -13 49 -8 49 -149 17 -123 -27 -307 -38 -444 -26
-115 10 -248 28 -254 34 -2 1 16 29 39 62 58 83 240 373 274 439 21 39 26 59
19 69 -5 7 -45 59 -87 114 -75 97 -239 342 -288 429 -13 24 -21 46 -17 50 4 3
37 -1 74 -10 201 -48 432 -20 798 97 60 19 111 33 114 31 10 -11 -37 -47 -153
-119 -172 -105 -225 -172 -159 -197 38 -14 55 -8 237 81 89 43 171 81 183 84
28 9 38 37 19 52 -9 6 -16 15 -16 20 0 5 -14 22 -30 38 -54 53 -85 146 -48
146 17 0 53 -47 98 -129 29 -52 51 -81 62 -81 14 0 126 37 136 45 2 2 -12 27
-31 56 -61 96 -147 249 -213 380 -36 71 -69 129 -74 129 -6 0 -10 10 -10 22 0
12 -14 52 -32 90 -25 54 -35 68 -49 65 -10 -3 -18 -2 -17 2 2 20 -4 31 -17 31
-8 0 -15 4 -15 9 0 5 -17 9 -37 8 -33 -2 -38 1 -36 20 3 23 -26 41 -37 23 -4
-6 -17 15 -30 47 -140 358 -238 715 -319 1158 -73 402 -104 713 -131 1320 -13
294 -16 323 -32 343 -9 11 -10 14 -1 8 10 -5 13 3 13 29 0 22 -4 34 -10 30 -5
-3 -10 3 -10 14 0 10 5 21 10 23 12 4 22 855 10 860 -4 2 -4 32 0 68 4 36 8
164 9 285 1 120 4 222 7 226 2 4 -3 9 -11 13 -8 3 -15 12 -15 19 0 8 -7 20
-15 27 -26 22 -5 30 79 30 155 0 592 33 816 61 606 77 1289 279 1940 574 259
117 863 448 1014 555 23 16 47 29 54 30 8 0 68 -33 135 -74z m3804 -2802 c13
-493 -48 -1265 -138 -1719 -35 -182 -47 -227 -59 -220 -5 3 -11 1 -15 -5 -3
-5 -11 -10 -17 -10 -12 0 -9 30 32 260 72 408 115 868 130 1380 9 302 18 429
36 513 14 68 25 -3 31 -199z m-7292 -2894 c3 -5 1 -10 -4 -10 -6 0 -11 5 -11
10 0 6 2 10 4 10 3 0 8 -4 11 -10z m6765 -84 c0 -19 -4 -38 -10 -41 -5 -3 -9
-16 -8 -28 0 -12 -7 -44 -16 -72 -25 -72 -196 -416 -210 -421 -6 -2 -23 -1
-38 4 l-27 7 34 65 c20 36 78 152 131 257 56 115 103 197 115 204 16 8 19 17
15 35 -4 14 -2 24 4 24 5 0 10 -15 10 -34z m40 30 c0 -3 -4 -8 -10 -11 -5 -3
-10 -1 -10 4 0 6 5 11 10 11 6 0 10 -2 10 -4z m-3454 -1949 c3 -9 13 -13 24
-10 10 3 21 0 24 -6 4 -6 0 -11 -8 -11 -9 0 -16 -4 -16 -10 0 -5 11 -10 25
-10 28 0 75 20 75 32 0 16 67 8 90 -12 27 -23 57 -25 84 -5 23 18 59 19 87 4
16 -8 30 -7 60 5 49 20 46 20 52 -3 3 -12 13 -19 28 -18 13 0 41 -3 61 -7 29
-6 39 -5 43 6 8 21 90 7 114 -19 18 -19 18 -21 3 -37 -16 -16 -16 -17 3 -10
11 4 34 15 50 24 45 24 65 31 65 20 0 -6 -5 -10 -10 -10 -6 0 -34 -17 -63 -39
-29 -21 -106 -72 -172 -112 -66 -40 -134 -83 -151 -96 -17 -13 -36 -23 -42
-23 -6 0 -12 -4 -14 -8 -3 -8 -100 -56 -107 -52 -2 1 -7 -2 -10 -7 -3 -4 -41
-26 -83 -48 -43 -22 -78 -43 -78 -48 0 -5 7 -6 16 -3 8 3 12 2 9 -4 -3 -6 -22
-10 -41 -10 -19 0 -34 -5 -34 -11 0 -6 -6 -9 -14 -6 -8 3 -16 1 -18 -4 -6 -17
-100 -20 -132 -3 -16 8 -32 12 -34 9 -3 -3 0 -5 6 -5 7 0 12 -5 12 -10 0 -12
-32 -10 -41 2 -4 7 -45 15 -89 18 -12 0 -11 3 3 11 16 9 16 12 2 26 -10 9 -13
23 -9 35 5 18 3 20 -19 14 -16 -4 -29 -1 -33 6 -5 8 -2 9 10 5 12 -5 16 -3 14
5 -3 7 -15 13 -29 13 -15 0 -23 5 -21 13 1 8 -2 11 -7 8 -5 -4 -14 2 -20 11
-5 10 -12 15 -16 12 -3 -4 0 -13 8 -21 9 -8 11 -21 6 -33 -4 -11 -8 -15 -8 -8
-1 17 -34 21 -47 4 -16 -20 -36 -4 -28 22 6 19 5 20 -10 8 -14 -12 -21 -10
-55 12 -22 15 -42 35 -46 47 -4 11 -10 18 -15 15 -5 -3 -14 1 -22 8 -7 8 -20
17 -28 20 -8 4 -4 5 10 2 14 -2 32 0 40 5 12 7 11 13 -10 34 -13 15 -27 26
-32 26 -5 0 2 -11 16 -24 l26 -23 -28 0 c-15 1 -34 -1 -42 -4 -10 -2 -14 2
-12 13 3 22 -15 33 -33 18 -8 -6 -23 -9 -35 -5 -21 7 -28 25 -9 25 5 0 7 5 4
10 -4 6 -10 8 -15 5 -5 -3 -11 -1 -15 5 -3 5 -13 10 -21 10 -9 0 -12 -5 -8
-12 4 -7 3 -8 -4 -4 -7 4 -11 17 -10 29 0 12 -3 30 -7 40 -4 10 -3 17 4 17 6
0 11 -4 11 -9 0 -5 7 -11 15 -15 9 -3 15 0 15 9 0 8 -7 15 -15 15 -8 0 -19 9
-25 19 -10 19 -9 19 42 -1 29 -12 57 -25 62 -30 6 -4 17 -8 25 -8 8 0 -11 18
-43 41 -31 22 -53 45 -50 51 13 21 72 37 123 33 34 -3 62 0 80 9 15 8 33 11
40 7 17 -11 111 -13 111 -3 0 4 21 6 48 4 74 -4 105 -3 111 5 10 13 59 15 81
3 15 -8 24 -8 33 2 20 19 106 23 113 5z m1464 -91 c0 -15 -364 -264 -595 -407
-182 -114 -458 -269 -690 -389 -77 -40 -145 -77 -152 -82 -8 -7 -51 11 -135
57 -459 252 -434 237 -738 418 -256 152 -505 320 -554 376 -27 30 -17 27 68
-24 42 -25 79 -45 82 -45 3 0 18 -9 32 -21 15 -11 74 -49 132 -85 58 -35 112
-68 120 -74 103 -71 943 -530 969 -530 42 0 828 435 1055 584 192 125 312 196
333 196 10 0 28 7 39 15 19 14 34 19 34 11z m-2245 -94 c-3 -3 -17 1 -31 8
-23 13 -24 15 -7 21 17 7 49 -18 38 -29z m-34 -9 c13 -16 12 -17 -3 -4 -17 13
-22 21 -14 21 2 0 10 -8 17 -17z m169 -93 c0 -5 -7 -7 -15 -4 -8 4 -15 8 -15
10 0 2 7 4 15 4 8 0 15 -4 15 -10z m114 -75 c2 -7 -2 -16 -11 -19 -21 -9 -31
3 -13 14 13 8 12 10 -2 10 -9 0 -19 4 -22 9 -3 4 5 6 19 4 13 -3 26 -11 29
-18z m-1856 -84 c11 -6 10 -10 -4 -15 -9 -3 -19 -4 -22 -1 -3 3 1 5 9 5 11 0
11 2 -1 10 -8 5 -10 10 -5 10 6 0 16 -4 23 -9z m2507 -119 c-3 -3 -11 0 -18 7
-9 10 -8 11 6 5 10 -3 15 -9 12 -12z m-280 -30 c-3 -3 -11 0 -18 7 -9 10 -8
11 6 5 10 -3 15 -9 12 -12z m51 5 c4 -4 -2 -7 -14 -7 -12 0 -22 4 -22 9 0 10
26 9 36 -2z m-866 -27 c0 -5 -7 -7 -15 -4 -8 4 -15 8 -15 10 0 2 7 4 15 4 8 0
15 -4 15 -10z m115 -57 c22 -13 60 -33 85 -46 25 -13 104 -55 175 -94 72 -38
227 -118 345 -178 118 -59 226 -116 240 -125 25 -18 26 -18 135 39 296 156
585 301 599 301 9 0 16 5 16 10 0 6 7 10 15 10 8 0 15 5 15 10 0 6 5 10 11 10
7 0 5 -10 -5 -25 -21 -32 -20 -38 7 -30 65 18 -180 -122 -558 -320 -71 -38
-149 -79 -172 -92 l-43 -23 -62 31 c-235 118 -489 259 -688 381 -205 127 -210
131 -197 153 8 15 7 17 -6 12 -11 -4 -14 -2 -11 8 6 15 24 9 99 -32z m1699
-58 c-4 -8 -12 -15 -20 -15 -8 0 -14 -4 -14 -10 0 -5 -4 -10 -10 -10 -18 0
-10 22 10 27 11 3 20 9 20 14 0 5 4 9 10 9 5 0 7 -7 4 -15z"/>
<path d="M4955 9296 c-422 -261 -768 -436 -1231 -626 -81 -33 -153 -60 -159
-60 -6 0 -27 -8 -48 -19 -20 -10 -57 -25 -81 -32 -25 -7 -43 -16 -40 -20 15
-25 -176 -111 -246 -111 -14 0 -30 -4 -35 -9 -6 -4 -17 -4 -24 0 -16 10 -53 2
-45 -10 3 -5 -2 -9 -11 -9 -9 0 -28 -8 -42 -17 -15 -10 -24 -13 -21 -8 3 6 0
16 -8 22 -8 8 -15 9 -19 3 -3 -6 -1 -10 4 -10 6 0 11 -4 11 -9 0 -15 -100 -40
-148 -37 -24 1 -45 -1 -48 -6 -3 -4 -14 -8 -25 -8 -12 0 -17 4 -14 11 4 6 12
8 19 6 6 -3 17 2 25 10 12 13 11 14 -5 9 -18 -5 -80 -19 -151 -32 -18 -4 -30
-10 -27 -15 3 -5 1 -9 -5 -9 -5 0 -12 6 -14 13 -4 9 -6 9 -6 -1 -1 -7 -4 -11
-8 -9 -5 3 -30 1 -58 -3 -27 -5 -81 -13 -120 -19 -98 -16 -291 -40 -525 -66
-25 -2 -106 -7 -180 -10 -74 -3 -159 -8 -188 -11 l-52 -5 5 -877 c8 -1296 24
-1579 121 -2142 41 -240 52 -289 64 -270 4 7 4 26 -1 43 -5 18 -5 27 0 21 5
-5 27 -88 49 -184 38 -162 56 -228 142 -509 17 -57 72 -215 122 -350 50 -135
95 -263 99 -283 23 -97 269 -550 303 -556 25 -5 186 46 186 59 0 14 -14 39
-84 154 -227 368 -445 924 -563 1440 -111 488 -153 797 -195 1455 -11 172 -17
1764 -7 1774 2 2 101 11 219 20 808 62 1605 286 2450 688 213 101 580 306 717
399 23 16 46 29 52 29 6 0 41 -19 78 -43 579 -371 1326 -693 2063 -891 324
-87 816 -169 1145 -191 50 -3 110 -8 136 -11 l45 -5 -3 -202 c-2 -111 -5 -445
-7 -742 -3 -297 -7 -560 -10 -585 -3 -25 -7 -66 -8 -93 -2 -34 -6 -46 -15 -43
-7 3 -13 -2 -13 -10 0 -8 5 -12 10 -9 6 3 10 -1 10 -9 0 -8 -5 -18 -10 -21 -6
-3 -7 -18 -4 -33 4 -22 3 -24 -6 -12 -9 12 -11 11 -9 -10 1 -14 0 -41 -1 -60
-1 -29 -3 -32 -10 -15 -11 25 -10 29 -16 -85 -4 -52 -11 -101 -18 -109 -8 -12
-8 -13 2 -7 9 5 12 -6 12 -43 0 -38 -4 -51 -15 -51 -8 0 -17 -10 -19 -22 -3
-13 -9 -45 -15 -73 -6 -27 -13 -90 -16 -140 -8 -122 -15 -165 -29 -165 -8 0
-18 -45 -29 -122 -48 -348 -187 -904 -297 -1186 -16 -42 -30 -80 -30 -85 0
-19 -170 -370 -176 -364 -3 2 4 29 15 58 11 30 23 65 26 79 8 25 8 25 -14 6
-22 -20 -21 -22 -25 27 -1 6 -8 17 -16 24 -9 7 -15 29 -16 60 0 26 -5 57 -11
68 -6 11 -16 45 -21 75 -18 93 -77 208 -138 268 -13 13 -24 33 -24 46 0 38
-12 86 -20 81 -4 -3 -10 4 -13 16 -3 12 0 22 9 26 8 3 14 12 14 21 0 13 -3 12
-20 -3 -15 -14 -20 -15 -20 -4 1 23 27 53 33 37 7 -22 15 -6 19 45 3 26 12 55
22 65 9 10 16 22 16 26 0 5 14 25 30 46 16 21 30 43 30 49 0 6 6 11 14 11 15
0 31 34 23 47 -3 5 1 14 9 21 8 7 14 10 14 5 0 -4 6 2 14 12 12 17 12 21 -4
32 -18 13 -17 15 16 48 19 19 39 35 44 35 6 0 10 9 10 19 0 11 4 22 9 25 12 8
20 55 10 62 -5 3 -9 16 -9 30 0 14 -7 36 -16 49 -9 15 -13 33 -9 47 5 17 4 19
-4 9 -14 -21 -31 -3 -66 64 -15 31 -31 52 -34 47 -8 -13 -101 -19 -101 -7 -1
11 86 36 94 27 13 -12 4 15 -15 48 -11 19 -17 26 -14 15 4 -17 -1 -20 -39 -23
-33 -2 -45 1 -50 13 -3 9 -10 13 -16 10 -6 -3 -17 0 -25 8 -18 18 -10 22 60
32 35 6 50 4 57 -6 12 -17 1 23 -17 66 -8 19 -14 23 -14 13 -1 -25 -45 -33
-73 -14 -12 9 -30 16 -40 16 -10 0 -18 4 -18 8 0 9 80 32 110 32 15 0 20 7 20
29 0 25 -4 29 -27 28 -79 -3 -124 4 -130 18 -8 23 -3 25 70 32 58 5 66 4 70
-13 3 -11 5 1 6 26 0 29 -2 40 -8 31 -5 -7 -13 -11 -18 -8 -5 3 -24 9 -41 12
-44 7 -79 22 -87 36 -10 15 123 3 143 -13 13 -11 14 -9 16 32 1 21 -3 24 -23
22 -26 -4 -112 25 -123 41 -16 25 5 37 63 37 48 0 60 -4 73 -22 15 -21 16 -20
17 37 0 33 5 87 10 120 5 33 14 110 20 170 12 115 29 163 29 84 0 -48 -27
-256 -35 -269 -2 -4 -7 -83 -11 -176 -4 -134 -2 -185 10 -244 16 -74 83 -252
98 -258 4 -2 8 -10 8 -18 0 -8 7 -17 15 -20 8 -4 15 -12 15 -19 0 -8 4 -17 10
-20 11 -7 9 -3 -33 88 -27 57 -30 76 -14 88 5 4 4 15 -1 25 -21 41 -30 103
-17 128 10 18 10 31 0 58 -9 27 -9 48 -1 82 6 25 13 46 16 46 4 0 14 6 23 13
16 11 16 19 7 64 -10 45 -9 56 8 89 17 33 18 40 4 66 -13 26 -12 35 2 82 15
48 15 54 0 85 -12 24 -13 36 -5 44 6 6 11 22 11 35 0 13 5 32 10 43 8 14 6 27
-5 50 -17 32 -12 88 9 101 7 5 6 11 -6 20 -12 10 -18 33 -21 89 -3 70 -6 79
-32 101 -20 17 -29 36 -32 64 -2 21 -13 65 -24 98 -10 33 -19 66 -19 75 0 11
-3 12 -11 4 -7 -7 -7 -27 0 -69 13 -71 14 -81 2 -68 -5 5 -17 45 -27 89 -15
71 -18 77 -26 53 -9 -25 -15 -27 -79 -34 -86 -8 -82 -9 -94 11 -14 21 3 31 95
52 41 9 77 18 78 19 2 1 1 12 -3 24 -5 16 -10 19 -20 10 -18 -15 -153 -43
-171 -36 -23 9 -16 22 18 39 l33 16 -33 -1 c-67 -2 -54 18 39 60 91 42 92 42
74 62 -16 18 -20 18 -27 6 -8 -15 -106 -56 -134 -56 -8 0 -24 9 -35 19 -21 19
-21 19 48 59 37 22 76 44 85 48 14 8 15 12 3 34 -8 14 -14 20 -15 13 0 -16
-148 -96 -165 -89 -8 3 -15 12 -15 20 0 17 117 115 138 116 15 0 16 16 2 25
-6 4 -27 -6 -47 -22 -92 -73 -113 -85 -128 -73 -8 7 -15 16 -15 19 0 4 26 33
58 65 62 64 44 61 -28 -3 -25 -23 -49 -39 -55 -38 -19 7 -16 36 5 54 49 42
102 115 92 125 -7 7 -24 -3 -54 -33 -86 -88 -95 -94 -113 -75 -15 15 -13 20
31 69 56 62 79 96 71 104 -8 7 -67 -52 -67 -66 0 -6 -3 -11 -7 -11 -5 0 -23
-14 -41 -31 -28 -27 -34 -29 -47 -15 -8 8 -15 17 -15 21 0 3 25 35 55 72 49
59 61 90 43 108 -3 4 -20 -13 -37 -37 -55 -77 -86 -109 -109 -111 -22 -1 -22
-3 10 -29 118 -101 168 -152 215 -225 101 -155 158 -304 183 -483 19 -134 15
-381 -9 -575 -37 -291 -34 -432 10 -577 26 -85 107 -218 182 -299 31 -34 57
-66 57 -71 0 -4 -12 -13 -27 -19 -23 -9 -31 -6 -65 28 -104 102 -204 281 -234
422 -20 96 -17 315 7 525 29 253 23 505 -15 651 -15 55 -31 118 -37 140 -9 37
-51 125 -95 202 -11 18 -25 33 -31 33 -7 0 -13 7 -13 15 0 15 -39 42 -41 28
-3 -20 10 -92 20 -111 5 -9 12 -37 16 -62 3 -25 15 -76 25 -115 30 -114 43
-281 37 -448 -6 -151 -17 -219 -77 -497 -41 -187 -51 -414 -26 -562 22 -130
69 -290 121 -411 41 -95 42 -102 27 -122 -20 -26 -47 -22 -69 11 -28 43 -94
247 -120 369 -19 93 -25 150 -25 250 -1 165 11 248 73 520 55 238 90 451 87
530 0 30 -2 38 -5 20 -21 -172 -39 -278 -63 -375 -111 -442 -130 -589 -106
-825 10 -103 23 -169 49 -250 29 -92 33 -111 21 -118 -8 -5 -12 -12 -9 -17 3
-5 1 -11 -5 -15 -6 -4 -8 -10 -6 -14 3 -4 -1 -8 -9 -8 -8 0 -15 3 -15 7 0 4
-11 5 -25 2 -14 -2 -22 -9 -19 -14 3 -5 -3 -12 -15 -15 -11 -3 -18 -9 -15 -14
3 -5 2 -9 -3 -10 -55 -5 -104 -21 -157 -50 -10 -6 -29 -13 -41 -15 -70 -12
-159 -21 -232 -23 -46 -1 -94 -5 -106 -8 -50 -12 -305 -15 -360 -3 -31 6 -57
14 -58 18 -6 65 -25 162 -36 192 -4 8 -5 19 -4 24 3 15 -23 96 -31 96 -3 0 -9
8 -12 18 -4 9 -20 33 -37 52 -17 19 -53 60 -80 91 -27 31 -56 65 -64 75 -13
17 -16 17 -25 4 -14 -22 -13 -37 20 -187 17 -75 29 -140 28 -145 -4 -12 -81
53 -248 211 -80 75 -171 161 -202 190 -32 30 -58 61 -58 69 0 8 24 38 53 66
278 271 391 377 414 390 16 8 56 28 89 45 34 16 65 34 68 40 4 5 13 7 22 4 13
-5 90 22 104 37 3 3 16 10 30 16 80 37 103 45 116 40 8 -3 14 -1 14 3 0 5 11
8 25 7 14 0 25 -3 25 -6 0 -3 -35 -45 -76 -95 -92 -109 -176 -226 -168 -234 3
-3 10 2 16 12 33 61 336 377 360 377 5 0 28 13 51 28 23 16 59 36 79 45 20 10
68 52 105 93 37 42 100 111 138 153 137 151 163 316 83 524 -30 78 -75 163
-83 155 -2 -2 5 -35 16 -73 46 -160 3 -331 -104 -417 -107 -84 -181 -100 -318
-68 -106 25 -138 22 -242 -21 -77 -32 -112 -33 -59 -3 17 11 35 27 38 36 3 10
20 20 37 23 21 4 33 12 33 23 1 9 3 32 7 50 7 41 -5 41 -87 2 -88 -41 -236
-187 -236 -232 0 -9 -8 -22 -18 -27 -11 -6 -49 -42 -87 -80 -70 -73 -111 -98
-172 -108 -26 -4 -34 -3 -29 5 4 7 3 12 -3 12 -5 0 -13 14 -16 32 -4 17 -14
38 -22 46 -7 8 -11 22 -8 32 4 14 -1 19 -27 23 -18 2 -34 3 -36 2 -7 -6 69
-170 88 -190 11 -12 29 -38 39 -58 l19 -37 -32 -38 c-35 -43 -410 -404 -445
-429 -22 -15 -25 -13 -74 33 -58 55 -205 195 -377 358 -209 199 -310 299 -310
308 0 4 -6 8 -14 8 -28 0 -40 62 -20 100 28 54 47 121 37 131 -7 7 -2 42 15
107 34 129 38 335 8 395 -16 32 -17 50 -12 117 l7 80 -27 10 c-15 6 -89 15
-163 21 -108 8 -145 7 -181 -3 l-45 -14 -15 -99 c-16 -109 -20 -113 -86 -100
l-34 6 0 110 c0 108 0 110 -26 119 -14 6 -38 10 -53 10 -20 0 -27 5 -28 20 -1
11 3 20 8 20 6 0 7 5 4 10 -4 6 18 21 48 35 30 13 57 31 61 40 7 20 6 103 -2
170 l-7 49 -45 -3 c-103 -7 -105 -7 -101 9 2 8 6 45 8 83 4 52 2 67 -8 68 -39
3 -224 -3 -228 -7 -3 -3 5 -41 16 -85 l22 -81 -87 3 -87 4 -3 -89 c-2 -49 1
-93 5 -97 5 -5 41 -11 81 -15 41 -4 72 -12 72 -18 0 -6 -5 -34 -12 -63 -13
-57 -22 -63 -95 -63 -50 0 -47 7 -43 -137 l2 -93 -54 0 -54 0 -16 96 c-10 53
-19 99 -22 101 -15 16 -104 21 -205 12 -170 -14 -165 -12 -158 -73 6 -54 91
-450 107 -501 7 -18 30 -44 61 -65 69 -48 101 -112 64 -126 -28 -11 -37 -41
-21 -73 l15 -29 -43 -16 c-56 -22 -80 -49 -80 -91 0 -42 29 -76 80 -94 36 -13
74 -44 74 -60 0 -4 14 -20 32 -34 l31 -26 -6 -113 c-6 -111 -76 -632 -140
-1043 l-32 -209 -42 -16 c-48 -18 -83 -47 -83 -69 0 -9 12 -34 26 -55 22 -32
25 -46 20 -82 -6 -50 -34 -108 -66 -142 -12 -13 -54 -44 -94 -69 -114 -73
-155 -135 -156 -231 0 -60 15 -103 54 -149 l27 -32 -38 -28 c-92 -70 -93 -72
-93 -171 0 -89 0 -91 31 -114 17 -13 54 -43 82 -68 113 -99 183 -140 324 -186
136 -45 262 -84 287 -89 26 -6 33 -15 11 -15 -10 0 -16 -2 -13 -5 3 -3 108 10
234 29 355 54 654 86 1151 121 l92 7 16 42 c9 23 17 49 19 58 1 9 7 22 13 30
14 16 8 180 -6 213 -9 19 -32 164 -35 213 0 12 -4 22 -7 22 -4 0 -9 21 -11 48
-5 44 -28 107 -65 177 -23 44 -70 91 -141 142 -35 25 -61 48 -58 50 3 3 1 16
-4 29 -6 15 -6 26 1 30 6 3 7 18 4 33 -7 33 19 99 70 173 33 47 207 231 326
345 24 23 56 55 71 72 15 17 30 31 33 31 3 0 38 31 78 70 94 91 108 92 198 7
37 -34 182 -174 323 -312 142 -137 261 -251 267 -253 5 -2 9 -9 9 -15 0 -6 7
-19 17 -29 9 -10 21 -28 27 -41 11 -20 18 -22 101 -21 50 1 142 5 205 9 119 8
318 -10 440 -40 30 -7 73 -16 95 -19 22 -3 51 -8 65 -10 14 -3 59 -10 100 -16
67 -10 229 -61 256 -81 5 -5 26 -6 46 -3 35 6 36 7 43 68 14 125 17 130 92
142 50 8 68 -9 76 -68 8 -59 41 -131 77 -166 30 -30 108 -72 135 -72 8 0 15
-3 15 -7 0 -5 19 -21 41 -38 31 -23 43 -41 54 -80 21 -72 9 -112 -44 -152 -60
-46 -106 -37 -146 31 -13 22 -41 55 -62 71 -33 26 -46 30 -98 30 -40 0 -75 -7
-105 -22 -48 -22 -160 -48 -370 -84 -69 -12 -143 -25 -165 -29 -114 -22 -216
-39 -269 -45 -33 -4 -66 -10 -75 -15 -39 -19 -81 -28 -87 -19 -4 6 -10 6 -18
0 -8 -7 -73 -9 -177 -7 -161 4 -199 9 -199 27 0 5 -8 9 -19 9 -10 0 -24 6 -30
14 -6 7 -25 16 -41 20 -33 6 -182 74 -190 85 -3 5 -18 11 -34 15 l-29 7 5 -50
c5 -47 41 -138 62 -153 14 -10 188 -17 681 -28 248 -6 554 -13 680 -18 313
-10 407 -8 447 9 21 9 70 14 138 14 95 0 108 -2 142 -25 l38 -25 0 -81 c0 -97
4 -94 -122 -101 -100 -6 -94 -13 -89 91 l3 49 -199 -6 c-109 -4 -272 -11 -362
-16 -155 -9 -166 -11 -182 -33 -16 -20 -16 -25 -3 -39 11 -13 12 -19 4 -24 -9
-6 -9 -10 1 -16 12 -7 11 -9 -1 -10 -8 0 -4 -5 10 -10 33 -11 -995 -2 -1084 9
-68 10 -91 24 -81 51 3 7 1 19 -4 25 -7 8 -6 21 3 38 14 26 13 26 -23 32 -20
4 -48 9 -63 12 l-28 6 0 -80 c0 -59 4 -83 15 -92 8 -7 15 -16 15 -21 0 -25
162 -187 194 -194 11 -3 170 -21 351 -40 689 -74 1241 -171 1575 -275 263 -81
232 -80 269 -9 17 33 28 65 25 71 -4 7 -2 8 4 4 7 -4 19 9 31 33 15 29 17 41
8 44 -7 3 -5 6 5 6 11 1 21 18 32 54 8 28 38 99 67 157 182 372 352 864 448
1300 34 150 104 563 120 710 48 410 77 937 82 1455 1 83 6 158 10 167 6 10 5
19 -1 23 -5 3 -10 11 -10 16 0 6 5 7 10 4 7 -4 10 161 10 488 0 427 2 496 15
507 8 7 15 16 15 20 0 4 -68 10 -152 14 -306 14 -891 89 -1103 142 -27 7 -29
6 -17 -9 8 -9 17 -16 20 -14 17 4 132 -27 122 -33 -9 -6 -9 -9 1 -13 62 -25
-254 37 -430 84 -152 40 -347 103 -376 121 -16 10 -41 23 -55 29 -55 26 11 18
165 -20 158 -40 222 -50 103 -16 -107 30 -401 133 -503 176 -16 7 -32 13 -35
14 -56 14 -110 39 -106 50 3 10 -4 12 -26 9 -17 -2 -43 3 -57 10 -41 21 -163
67 -167 63 -2 -2 18 -16 46 -31 58 -32 67 -42 42 -51 -26 -8 -27 -7 -217 76
-237 104 -580 287 -601 320 -4 8 -3 9 4 5 7 -4 12 -1 12 8 0 8 -10 21 -22 27
-13 7 -25 15 -28 18 -3 4 -68 47 -145 96 -77 48 -147 94 -156 102 -8 7 -20 13
-25 12 -5 0 -76 -42 -159 -93z m-2257 -969 c-7 -6 -26 -13 -43 -14 -23 -1 -26
1 -12 8 9 6 21 8 26 4 5 -3 12 -1 16 5 3 5 11 10 16 10 6 0 4 -6 -3 -13z
m6079 -709 c-1 -40 -3 -8 -3 72 0 80 2 112 3 73 2 -40 2 -106 0 -145z m0 -190
c-3 -8 -6 -5 -6 6 -1 11 2 17 5 13 3 -3 4 -12 1 -19z m-5307 -28 c-36 -12
-120 -12 -120 0 0 6 30 10 73 9 51 -1 65 -3 47 -9z m-131 -234 c-2 -2 -38 -6
-79 -9 -46 -4 -67 -3 -55 3 19 8 143 14 134 6z m4339 -353 l-3 -38 -62 -3
c-39 -2 -63 1 -63 8 0 5 -9 10 -20 10 -11 0 -20 5 -20 10 0 6 -1 13 -2 18 -3
7 97 29 145 31 27 1 28 -1 25 -36z m45 -80 c11 -20 18 -143 8 -143 -6 0 -11 7
-11 15 0 8 -4 15 -10 15 -5 0 -10 -4 -10 -9 0 -14 -133 0 -148 16 -26 26 -6
41 67 48 38 4 75 4 80 0 7 -3 11 3 11 15 0 17 -4 19 -27 13 -31 -9 -131 -8
-140 1 -13 12 7 17 81 19 42 1 76 5 76 10 0 4 4 7 9 7 6 0 12 -3 14 -7z
m-4188 -113 c-46 -12 -277 -12 -270 0 4 6 65 10 153 9 90 -1 135 -4 117 -9z
m2455 -54 c0 -2 -7 -7 -16 -10 -8 -3 -12 -2 -9 4 6 10 25 14 25 6z m1750 -53
c0 -58 -19 -67 -21 -10 -2 30 -2 31 -6 5 -4 -24 -9 -28 -39 -28 -18 0 -53 5
-78 12 -41 11 -43 14 -43 45 l1 34 93 -2 93 -1 0 -55z m-1776 16 c-3 -6 -12
-8 -20 -5 -13 5 -19 -6 -15 -28 1 -4 -5 -13 -12 -20 -8 -6 -42 -48 -75 -93
-50 -65 -70 -84 -106 -98 -60 -23 -82 -14 -30 13 48 24 101 80 155 164 21 34
39 58 39 54 0 -4 6 -1 13 6 16 16 60 22 51 7z m-2416 -35 c12 -4 22 -10 22
-14 0 -17 -42 -24 -190 -27 -126 -4 -159 -2 -175 10 -18 14 -17 15 25 25 50
11 282 15 318 6z m4162 -64 c8 -13 10 -12 10 3 0 9 5 17 10 17 6 0 10 -20 10
-45 0 -25 -4 -45 -10 -45 -5 0 -10 9 -10 20 0 11 -4 20 -10 20 -5 0 -10 -6
-10 -14 0 -25 -18 -28 -73 -15 -55 14 -76 32 -77 63 0 16 7 18 76 14 52 -2 78
-8 84 -18z m-22 -105 c13 -5 17 -41 4 -49 -10 -6 -90 11 -119 26 -13 6 -23 18
-23 25 0 11 13 13 63 8 34 -4 68 -8 75 -10z m-20 -71 c16 -5 22 -14 22 -34 0
-60 -6 -62 -97 -35 -25 8 -57 51 -48 65 7 11 87 13 123 4z m11 -130 c8 -8 -11
-76 -24 -80 -8 -3 -36 6 -63 21 -39 21 -49 32 -49 52 0 25 0 25 66 18 36 -4
68 -9 70 -11z m828 -61 c-3 -10 -5 -4 -5 12 0 17 2 24 5 18 2 -7 2 -21 0 -30z
m-4111 -45 c4 -5 15 -8 23 -8 9 0 23 -9 31 -20 8 -11 19 -20 25 -20 5 0 35
-23 65 -51 30 -28 91 -82 135 -121 44 -39 120 -109 169 -155 79 -75 87 -85 75
-101 -20 -25 -18 -23 -339 -317 -144 -132 -185 -167 -227 -195 -23 -16 -42
-26 -41 -22 0 4 -6 23 -15 44 -10 21 -23 101 -31 190 -9 84 -20 201 -26 259
-6 58 -12 144 -13 191 -1 47 -7 91 -13 99 -9 10 -9 30 -1 74 6 33 14 62 17 65
4 3 10 13 13 24 6 14 10 16 21 7 10 -8 17 -6 31 9 10 11 14 20 10 20 -4 0 -1
8 8 18 16 17 69 23 83 10z m3212 -4 l52 -7 0 -39 c0 -49 -16 -55 -72 -29 -23
11 -39 20 -34 21 5 0 3 7 -4 15 -7 8 -9 15 -4 15 4 0 -1 7 -12 15 -19 14 -19
14 1 15 11 0 44 -3 73 -6z m-218 -454 c12 -41 26 -79 31 -84 5 -6 9 -15 9 -22
0 -22 91 -167 146 -231 30 -35 54 -67 54 -71 0 -10 -147 -104 -166 -106 -25
-2 -90 166 -114 295 -21 109 -28 305 -14 344 8 20 17 0 54 -125z m399 -286
c12 -19 21 -38 21 -41 0 -10 -82 5 -94 17 -8 8 -7 13 4 20 12 8 11 10 -5 10
-20 1 -20 1 -1 15 31 24 52 18 75 -21z m-4419 -414 c0 -5 -5 -10 -11 -10 -5 0
-7 5 -4 10 3 6 8 10 11 10 2 0 4 -4 4 -10z m170 -86 c31 -5 33 -7 15 -17 -28
-16 -370 -16 -386 0 -12 12 7 18 91 27 42 4 230 -3 280 -10z m3868 -7 c36 -17
49 -42 33 -61 -29 -35 -150 -32 -193 6 -20 18 -31 19 -98 14 -41 -4 -88 -9
-105 -11 -25 -4 -355 -29 -670 -51 -61 -5 -499 29 -532 41 -21 7 -15 24 18 57
l30 31 747 -7 c554 -5 752 -10 770 -19z m-3098 -7 c0 -5 -9 -10 -20 -10 -11 0
-20 5 -20 10 0 6 9 10 20 10 11 0 20 -4 20 -10z m-807 -243 c52 -24 57 -28 47
-46 -14 -28 -70 -41 -171 -41 -130 0 -209 30 -209 80 0 27 64 41 170 37 88 -3
115 -8 163 -30z m4105 -102 c-3 -3 -9 2 -12 12 -6 14 -5 15 5 6 7 -7 10 -15 7
-18z m-4118 -134 c20 -6 45 -17 55 -25 18 -13 18 -15 -14 -34 -63 -38 -169
-54 -330 -50 -120 2 -152 6 -174 21 -53 35 -23 68 84 92 73 17 319 14 379 -4z
m1052 -48 c24 -22 24 -53 -1 -53 -20 0 -31 18 -31 51 0 23 8 24 32 2z m-1037
-367 l80 -12 -158 -7 c-157 -7 -369 -2 -437 10 -30 6 -23 8 50 19 98 14 341 9
465 -10z m4171 -523 c-11 -27 -98 -154 -103 -149 -5 4 98 166 105 166 2 0 1
-7 -2 -17z m272 -179 c-7 -15 -14 -21 -16 -15 -2 7 2 18 8 26 18 22 21 18 8
-11z"/>
<path d="M5066 8925 c-79 -53 -338 -205 -456 -267 -218 -114 -261 -135 -430
-208 -90 -39 -185 -81 -210 -92 -75 -34 -454 -171 -626 -226 -465 -149 -987
-254 -1374 -277 -162 -10 -147 5 -138 -127 5 -62 6 -179 3 -260 -3 -95 -1
-148 5 -148 6 0 10 54 10 138 0 212 10 321 29 326 9 3 86 12 171 21 411 42
708 97 1035 191 182 53 351 105 370 114 11 6 81 30 155 54 232 76 553 210 820
340 196 96 331 166 350 180 18 13 38 24 128 73 37 19 74 42 83 49 8 8 18 14
22 14 3 0 26 14 50 30 47 32 76 37 108 20 13 -7 19 -7 19 -1 0 6 20 -1 45 -15
25 -13 45 -22 45 -19 0 5 -21 20 -139 97 -33 23 -31 23 -75 -7z"/>
<path d="M6160 8826 c0 -2 7 -7 16 -10 8 -3 12 -2 9 4 -6 10 -25 14 -25 6z"/>
<path d="M6406 8772 c-3 -5 1 -9 9 -9 8 0 12 4 9 9 -3 4 -7 8 -9 8 -2 0 -6 -4
-9 -8z"/>
<path d="M5565 8670 c3 -5 11 -10 16 -10 6 0 7 5 4 10 -3 6 -11 10 -16 10 -6
0 -7 -4 -4 -10z"/>
<path d="M5640 8636 c0 -3 9 -10 20 -16 11 -6 20 -8 20 -6 0 3 -9 10 -20 16
-11 6 -20 8 -20 6z"/>
<path d="M5714 8591 c3 -5 16 -11 28 -14 22 -6 22 -5 4 8 -22 17 -40 20 -32 6z"/>
<path d="M5787 8555 c29 -20 113 -58 119 -52 5 5 -83 53 -116 62 l-25 7 22
-17z"/>
<path d="M7208 8443 c7 -3 16 -2 19 1 4 3 -2 6 -13 5 -11 0 -14 -3 -6 -6z"/>
<path d="M6050 8436 c0 -2 7 -6 15 -10 8 -3 15 -1 15 4 0 6 -7 10 -15 10 -8 0
-15 -2 -15 -4z"/>
<path d="M6100 8418 c19 -18 179 -82 186 -75 3 3 -12 11 -33 17 -21 7 -43 16
-48 20 -20 16 -120 51 -105 38z"/>
<path d="M7428 8383 c7 -3 16 -2 19 1 4 3 -2 6 -13 5 -11 0 -14 -3 -6 -6z"/>
<path d="M7475 8370 c11 -5 29 -8 40 -8 16 0 15 2 -5 8 -34 11 -60 11 -35 0z"/>
<path d="M6330 8317 c0 -4 69 -31 200 -79 84 -31 102 -41 90 -48 -11 -7 81
-50 106 -50 8 0 22 -4 32 -9 9 -5 49 -19 87 -30 123 -35 118 -34 111 -20 -4 8
-1 6 7 -4 16 -20 213 -87 332 -114 92 -20 116 -26 270 -62 110 -27 220 -48
348 -67 15 -2 42 -7 60 -10 17 -3 66 -10 107 -15 41 -5 126 -16 189 -25 111
-17 114 -17 127 2 7 10 21 27 30 36 10 10 15 20 13 23 -3 2 -59 9 -125 15
-345 32 -774 104 -1094 185 -114 29 -397 110 -433 125 -12 5 -69 23 -127 41
-58 18 -109 36 -114 40 -6 5 -16 9 -24 9 -7 0 -47 14 -89 30 -67 27 -103 36
-103 27z m545 -207 c3 -6 -1 -7 -9 -4 -18 7 -21 14 -7 14 6 0 13 -4 16 -10z"/>
<path d="M6390 7853 c-6 -21 -14 -79 -17 -128 -5 -75 -3 -93 10 -104 14 -11
21 -8 49 18 21 20 36 27 42 21 6 -6 13 -10 16 -10 11 0 -5 79 -29 150 -35 100
-53 114 -71 53z"/>
<path d="M6490 7874 c0 -6 9 -28 19 -50 33 -69 44 -130 38 -213 -3 -42 -9 -85
-13 -96 -7 -16 -4 -17 25 -12 70 14 86 28 89 80 3 39 6 47 23 47 10 0 19 5 19
12 0 6 -3 8 -7 5 -3 -4 -13 2 -20 13 -8 11 -19 18 -24 15 -8 -5 -11 8 -8 31 0
4 -4 10 -9 13 -5 3 -21 25 -36 49 -14 23 -31 42 -36 42 -5 0 -21 17 -35 37
-14 21 -25 33 -25 27z"/>
<path d="M6762 7759 c-26 -67 -45 -140 -39 -146 13 -12 24 11 42 85 17 71 15
109 -3 61z"/>
<path d="M6837 7693 c-14 -38 -28 -76 -32 -85 -4 -10 -3 -18 3 -18 6 0 24 36
41 80 34 88 35 90 22 90 -5 0 -20 -30 -34 -67z"/>
<path d="M6928 7713 c-28 -32 -70 -125 -63 -141 9 -24 27 0 60 81 29 69 30 90
3 60z"/>
<path d="M7023 7668 c-38 -50 -81 -148 -66 -148 11 0 88 148 81 155 -3 3 -10
0 -15 -7z"/>
<path d="M7050 7570 c-47 -71 -51 -81 -37 -95 9 -8 22 -15 29 -15 10 0 9 3 -2
10 -13 8 -13 13 -2 31 42 67 83 149 74 149 -5 0 -33 -36 -62 -80z"/>
<path d="M6100 7309 c-53 -22 -110 -101 -110 -151 1 -22 1 -22 24 6 13 16 29
25 35 22 7 -5 11 5 11 29 0 52 36 85 92 85 86 0 115 -55 58 -112 -27 -27 -35
-30 -84 -26 -57 3 -66 -6 -16 -17 34 -7 96 9 124 34 10 9 25 31 33 49 12 28
16 31 34 22 25 -14 81 -9 87 8 2 8 -10 12 -42 12 -27 0 -58 8 -80 21 -41 24
-130 34 -166 18z"/>
<path d="M1837 7293 c-4 -3 -7 -148 -6 -322 1 -195 4 -303 9 -281 8 31 14 610
6 610 -1 0 -6 -3 -9 -7z"/>
<path d="M6290 7191 c0 -14 -79 -64 -128 -81 -58 -19 -67 -40 -17 -40 44 0 82
19 115 57 32 36 52 73 39 73 -5 0 -9 -4 -9 -9z"/>
<path d="M7610 7051 c0 -5 5 -13 10 -16 6 -3 10 -2 10 4 0 5 -4 13 -10 16 -5
3 -10 2 -10 -4z"/>
<path d="M7691 6924 c0 -11 3 -14 6 -6 3 7 2 16 -1 19 -3 4 -6 -2 -5 -13z"/>
<path d="M5491 6649 c-12 -11 -21 -27 -21 -37 0 -14 3 -14 18 4 12 15 26 21
45 19 32 -4 32 14 0 26 -15 5 -27 2 -42 -12z"/>
<path d="M5626 6631 c-33 -34 -41 -93 -15 -99 10 -2 19 5 22 18 3 12 15 24 26
27 12 3 21 10 21 15 0 5 4 7 9 3 15 -8 24 13 17 41 -9 34 -45 31 -80 -5z"/>
<path d="M1886 5617 c3 -10 9 -15 12 -12 3 3 0 11 -7 18 -10 9 -11 8 -5 -6z"/>
<path d="M1891 5559 c1 -19 5 -59 9 -89 8 -48 8 -44 5 29 -2 46 -7 86 -10 89
-3 3 -5 -10 -4 -29z"/>
<path d="M8381 5454 c0 -11 3 -14 6 -6 3 7 2 16 -1 19 -3 4 -6 -2 -5 -13z"/>
<path d="M1912 5380 c0 -19 2 -27 5 -17 2 9 2 25 0 35 -3 9 -5 1 -5 -18z"/>
<path d="M7141 5044 c0 -11 3 -14 6 -6 3 7 2 16 -1 19 -3 4 -6 -2 -5 -13z"/>
<path d="M1626 4842 c3 -29 10 -65 15 -80 11 -35 2 47 -11 98 -8 28 -8 25 -4
-18z"/>
<path d="M1655 4695 c4 -22 11 -44 16 -50 12 -12 0 53 -13 75 -6 10 -7 1 -3
-25z"/>
<path d="M2390 3698 c0 -13 61 -137 70 -143 13 -8 -2 32 -36 93 -27 49 -34 59
-34 50z"/>
<path d="M2470 3539 c0 -4 7 -20 15 -35 8 -16 15 -22 15 -13 0 14 -29 61 -30
48z"/>
<path d="M2510 3461 c0 -5 5 -13 10 -16 6 -3 10 -2 10 4 0 5 -4 13 -10 16 -5
3 -10 2 -10 -4z"/>
<path d="M2541 3403 c5 -15 22 -46 36 -68 15 -22 38 -57 51 -77 14 -21 27 -38
29 -38 5 0 -11 30 -65 123 -48 82 -69 107 -51 60z"/>
<path d="M5170 3253 c-14 -2 -56 -10 -95 -19 -386 -88 -540 -573 -270 -850 93
-94 218 -144 385 -151 131 -6 224 11 341 64 l64 30 32 108 c18 60 29 113 25
117 -16 16 -43 -5 -67 -51 -34 -69 -108 -146 -167 -175 -68 -34 -180 -36 -262
-6 -182 69 -277 316 -220 573 43 190 160 298 324 299 131 1 244 -80 306 -219
17 -39 29 -53 44 -53 19 0 20 6 20 150 0 125 -2 150 -15 150 -8 0 -23 -10 -34
-21 -23 -25 -37 -23 -126 14 -88 37 -201 53 -285 40z"/>
<path d="M4458 3226 c-81 -7 -150 -15 -154 -18 -12 -13 8 -28 47 -34 94 -15
92 -51 -20 -340 -48 -126 -99 -257 -112 -291 -13 -35 -26 -63 -29 -63 -10 0
-280 576 -280 596 0 30 27 62 59 69 30 6 44 24 33 42 -5 7 -38 6 -107 -3 -95
-14 -357 -44 -376 -44 -5 0 -9 -9 -9 -20 0 -15 9 -21 41 -26 73 -12 101 -48
240 -309 35 -66 85 -160 111 -210 27 -49 81 -154 121 -232 69 -138 73 -143
103 -143 28 0 33 5 52 53 155 399 324 822 341 855 21 41 79 82 116 82 25 0 15
45 -10 46 -11 1 -86 -4 -167 -10z"/>
<path d="M6045 2758 c-180 -362 -215 -426 -244 -445 -19 -13 -47 -23 -62 -23
-24 0 -29 -4 -29 -25 0 -31 6 -32 188 -40 139 -7 142 -6 142 14 0 15 -8 22
-32 26 -83 16 -93 67 -37 180 27 55 40 71 59 74 41 6 320 -22 336 -33 15 -12
74 -174 74 -206 0 -23 -28 -40 -68 -40 -30 0 -51 -25 -35 -41 4 -4 71 -15 148
-24 77 -9 167 -20 200 -25 95 -15 125 -13 125 9 0 12 -11 23 -32 30 -74 26
-65 8 -394 876 -21 55 -38 101 -39 102 -1 2 -21 5 -46 8 l-44 6 -210 -423z
m214 55 c23 -65 52 -146 64 -180 12 -34 19 -64 16 -67 -3 -3 -39 -2 -80 4 -41
5 -104 10 -141 10 -38 0 -68 4 -68 10 0 17 153 340 161 340 4 0 26 -53 48
-117z"/>
<path d="M8220 2131 c0 -6 4 -13 10 -16 6 -3 7 1 4 9 -7 18 -14 21 -14 7z"/>
<path d="M8204 1912 c-5 -17 -9 -20 -15 -11 -12 19 -22 4 -14 -20 5 -18 8 -19
21 -7 7 8 19 16 25 18 9 3 9 9 1 24 -11 18 -12 18 -18 -4z"/>
<path d="M8180 1824 c0 -8 5 -12 10 -9 6 3 10 10 10 16 0 5 -4 9 -10 9 -5 0
-10 -7 -10 -16z"/>
<path d="M4380 1653 c0 -5 10 -9 23 -9 16 1 22 -4 21 -20 0 -14 4 -20 13 -17
7 3 10 10 6 16 -4 7 0 8 13 3 17 -6 17 -5 4 8 -18 18 -80 33 -80 19z"/>
<path d="M4595 1560 c3 -5 8 -10 11 -10 2 0 4 5 4 10 0 6 -5 10 -11 10 -5 0
-7 -4 -4 -10z"/>
<path d="M4705 1470 c3 -5 11 -10 16 -10 6 0 7 5 4 10 -3 6 -11 10 -16 10 -6
0 -7 -4 -4 -10z"/>
<path d="M4902 1394 c9 -9 21 -15 27 -13 6 2 -2 10 -17 17 -25 11 -25 11 -10
-4z"/>
<path d="M5820 1050 c-8 -5 -10 -10 -5 -10 6 0 17 5 25 10 8 5 11 10 5 10 -5
0 -17 -5 -25 -10z"/>
</g>
</svg>
